<?xml version="1.0" standalone="no"?>
<!DOCTYPE svg PUBLIC "-//W3C//DTD SVG 1.1//EN"
  "http://www.w3.org/Graphics/SVG/1.1/DTD/svg11.dtd">
<svg xmlns="http://www.w3.org/2000/svg" version="1.1" class="railroad-diagram" width="661" height="102" viewBox="0 0 661 102">
<defs><style type="text/css"><![CDATA[ svg.railroad-diagram {
  background-color: hsl(30,20%,95%);
}
svg.railroad-diagram path {
  stroke-width: 3;
  stroke: black;
  fill: none;
}
svg.railroad-diagram text {
  font: bold 14px monospace;
  text-anchor: middle;
  cursor: pointer;
}
svg.railroad-diagram text.label {
  text-anchor: start;
}
svg.railroad-diagram text.comment {
  font: italic 12px monospace;
}
svg.railroad-diagram rect {
  stroke-width: 3;
  stroke: black;
  fill: hsl(120,100%,90%);
}
 ]]></style></defs>
<g transform="translate(.5 .5)">
<path d="M 20 31 v 20 m 10 -20 v 20 m -10 -10 h 20.5"></path>
<g>
<path d="M40 41h0"></path>
<path d="M620 41h0"></path>
<g>
<path d="M40 41h0"></path>
<path d="M136 41h0"></path>
<path d="M40 41a10 10 0 0 0 10 -10v0a10 10 0 0 1 10 -10"></path>
<g>
<path d="M60 21h56"></path>
</g>
<path d="M116 21a10 10 0 0 1 10 10v0a10 10 0 0 0 10 10"></path>
<path d="M40 41h20"></path>
<g>
<path d="M60 41h0"></path>
<path d="M116 41h0"></path>
<path d="M60 41h10"></path>
<g>
<path d="M70 41h0"></path>
<path d="M106 41h0"></path>
<rect x="70" y="30" width="36" height="22" rx="10" ry="10"></rect>
<text x="88" y="45">  </text>
</g>
<path d="M106 41h10"></path>
<path d="M70 41a10 10 0 0 0 -10 10v0a10 10 0 0 0 10 10"></path>
<g>
<path d="M70 61h36"></path>
</g>
<path d="M106 61a10 10 0 0 0 10 -10v0a10 10 0 0 0 -10 -10"></path>
</g>
<path d="M116 41h20"></path>
</g>
<path d="M136 41h10"></path>
<g>
<path d="M146 41h0"></path>
<path d="M214 41h0"></path>
<rect x="146" y="30" width="68" height="22"></rect>
<text x="180" y="45">bullet</text>
</g>
<path d="M214 41h10"></path>
<g>
<path d="M224 41h0"></path>
<path d="M380 41h0"></path>
<path d="M224 41h20"></path>
<g>
<path d="M244 41h28"></path>
<path d="M332 41h28"></path>
<rect x="272" y="30" width="60" height="22"></rect>
<text x="302" y="45">range</text>
</g>
<path d="M360 41h20"></path>
<path d="M224 41a10 10 0 0 1 10 10v10a10 10 0 0 0 10 10"></path>
<g>
<path d="M244 71h0"></path>
<path d="M360 71h0"></path>
<rect x="244" y="60" width="116" height="22"></rect>
<text x="302" y="75">datetimedata</text>
</g>
<path d="M360 71a10 10 0 0 0 10 -10v-10a10 10 0 0 1 10 -10"></path>
</g>
<g>
<path d="M380 41h0"></path>
<path d="M564 41h0"></path>
<path d="M380 41a10 10 0 0 0 10 -10v0a10 10 0 0 1 10 -10"></path>
<g>
<path d="M400 21h144"></path>
</g>
<path d="M544 21a10 10 0 0 1 10 10v0a10 10 0 0 0 10 10"></path>
<path d="M380 41h20"></path>
<g>
<path d="M400 41h0"></path>
<path d="M544 41h0"></path>
<path d="M400 41h10"></path>
<g>
<path d="M410 41h0"></path>
<path d="M438 41h0"></path>
<rect x="410" y="30" width="28" height="22" rx="10" ry="10"></rect>
<text x="424" y="45"> </text>
</g>
<path d="M438 41h10"></path>
<path d="M448 41h10"></path>
<g>
<path d="M458 41h0"></path>
<path d="M534 41h0"></path>
<rect x="458" y="30" width="76" height="22"></rect>
<text x="496" y="45">details</text>
</g>
<path d="M534 41h10"></path>
</g>
<path d="M544 41h20"></path>
</g>
<path d="M564 41h10"></path>
<g>
<path d="M574 41h0"></path>
<path d="M610 41h0"></path>
<rect x="574" y="30" width="36" height="22" rx="10" ry="10"></rect>
<text x="592" y="45">\n</text>
</g>
<path d="M610 41h10"></path>
</g>
<path d="M 620 41 h 20 m -10 -10 v 20 m 10 -20 v 20"></path>
</g>
</svg>
