<?xml version="1.0" standalone="no"?>
<!DOCTYPE svg PUBLIC "-//W3C//DTD SVG 1.1//EN"
  "http://www.w3.org/Graphics/SVG/1.1/DTD/svg11.dtd">
<svg xmlns="http://www.w3.org/2000/svg" version="1.1" class="railroad-diagram" width="437" height="150" viewBox="0 0 437 150">
<defs><style type="text/css"><![CDATA[ svg.railroad-diagram {
  background-color: hsl(30,20%,95%);
}
svg.railroad-diagram path {
  stroke-width: 3;
  stroke: black;
  fill: none;
}
svg.railroad-diagram text {
  font: bold 14px monospace;
  text-anchor: middle;
  cursor: pointer;
}
svg.railroad-diagram text.label {
  text-anchor: start;
}
svg.railroad-diagram text.comment {
  font: italic 12px monospace;
}
svg.railroad-diagram rect {
  stroke-width: 3;
  stroke: black;
  fill: hsl(120,100%,90%);
}
 ]]></style></defs>
<g transform="translate(.5 .5)">
<path d="M 20 21 v 20 m 10 -20 v 20 m -10 -10 h 20.5"></path>
<g>
<path d="M40 31h0"></path>
<path d="M396 31h0"></path>
<path d="M40 31h20"></path>
<g>
<path d="M60 31h52"></path>
<path d="M324 31h52"></path>
<path d="M112 31h10"></path>
<g>
<path d="M122 31h0"></path>
<path d="M174 31h0"></path>
<rect x="122" y="20" width="52" height="22"></rect>
<text x="148" y="35">line</text>
</g>
<path d="M174 31h10"></path>
<g>
<path d="M184 31h0"></path>
<path d="M324 31h0"></path>
<path d="M184 31h20"></path>
<g>
<path d="M204 31h100"></path>
</g>
<path d="M304 31h20"></path>
<path d="M184 31a10 10 0 0 1 10 10v0a10 10 0 0 0 10 10"></path>
<g>
<path d="M204 51h0"></path>
<path d="M304 51h0"></path>
<path d="M 204 51 h 20 m -10 -10 v 20 m 10 -20 v 20"></path>
<path d="M224 51h10"></path>
<g>
<path d="M234 51h0"></path>
<path d="M294 51h0"></path>
<rect x="234" y="40" width="60" height="22"></rect>
<text x="264" y="55">title</text>
</g>
<path d="M294 51h10"></path>
</g>
<path d="M304 51a10 10 0 0 0 10 -10v0a10 10 0 0 1 10 -10"></path>
</g>
</g>
<path d="M376 31h20"></path>
<path d="M40 31a10 10 0 0 1 10 10v39a10 10 0 0 0 10 10"></path>
<g>
<path d="M60 90h0"></path>
<path d="M376 90h0"></path>
<path d="M60 90h10"></path>
<g>
<path d="M70 90h0"></path>
<path d="M146 90h0"></path>
<rect x="70" y="79" width="76" height="22"></rect>
<text x="108" y="94">details</text>
</g>
<path d="M146 90h10"></path>
<g>
<path d="M156 90h0"></path>
<path d="M376 90h0"></path>
<path d="M156 90h20"></path>
<g>
<path d="M176 90h180"></path>
</g>
<path d="M356 90h20"></path>
<path d="M156 90a10 10 0 0 1 10 10v0a10 10 0 0 0 10 10"></path>
<g>
<path d="M176 110h0"></path>
<path d="M356 110h0"></path>
<path d="M 176 110 h 20 m -10 -10 v 20 m 10 -20 v 20"></path>
<path d="M196 110h10"></path>
<g>
<path d="M206 110h0"></path>
<path d="M346 110h0"></path>
<rect x="206" y="99" width="140" height="22" rx="10" ry="10"></rect>
<text x="276" y="114">&#91;any character&#93;</text>
</g>
<path d="M346 110h10"></path>
</g>
<path d="M356 110a10 10 0 0 0 10 -10v0a10 10 0 0 1 10 -10"></path>
</g>
</g>
<path d="M376 90a10 10 0 0 0 10 -10v-39a10 10 0 0 1 10 -10"></path>
</g>
<path d="M 396 31 h 20 m -10 -10 v 20 m 10 -20 v 20"></path>
</g>
</svg>
