<?xml version="1.0" standalone="no"?>
<!DOCTYPE svg PUBLIC "-//W3C//DTD SVG 1.1//EN"
  "http://www.w3.org/Graphics/SVG/1.1/DTD/svg11.dtd">
<svg xmlns="http://www.w3.org/2000/svg" version="1.1" class="railroad-diagram" width="437" height="209" viewBox="0 0 437 209">
<defs><style type="text/css"><![CDATA[ svg.railroad-diagram {
  background-color: hsl(30,20%,95%);
}
svg.railroad-diagram path {
  stroke-width: 3;
  stroke: black;
  fill: none;
}
svg.railroad-diagram text {
  font: bold 14px monospace;
  text-anchor: middle;
  cursor: pointer;
}
svg.railroad-diagram text.label {
  text-anchor: start;
}
svg.railroad-diagram text.comment {
  font: italic 12px monospace;
}
svg.railroad-diagram rect {
  stroke-width: 3;
  stroke: black;
  fill: hsl(120,100%,90%);
}
 ]]></style></defs>
<g transform="translate(.5 .5)">
<path d="M 20 21 v 20 m 10 -20 v 20 m -10 -10 h 20.5"></path>
<g>
<path d="M40 31h0"></path>
<path d="M396 31h0"></path>
<path d="M40 31h20"></path>
<g>
<path d="M60 31h24"></path>
<path d="M352 31h24"></path>
<path d="M84 31h10"></path>
<g>
<path d="M94 31h0"></path>
<path d="M202 31h0"></path>
<rect x="94" y="20" width="108" height="22"></rect>
<text x="148" y="35">bulletevent</text>
</g>
<path d="M202 31h10"></path>
<g>
<path d="M212 31h0"></path>
<path d="M352 31h0"></path>
<path d="M212 31h20"></path>
<g>
<path d="M232 31h100"></path>
</g>
<path d="M332 31h20"></path>
<path d="M212 31a10 10 0 0 1 10 10v0a10 10 0 0 0 10 10"></path>
<g>
<path d="M232 51h0"></path>
<path d="M332 51h0"></path>
<path d="M 232 51 h 20 m -10 -10 v 20 m 10 -20 v 20"></path>
<path d="M252 51h10"></path>
<g>
<path d="M262 51h0"></path>
<path d="M322 51h0"></path>
<rect x="262" y="40" width="60" height="22"></rect>
<text x="292" y="55">title</text>
</g>
<path d="M322 51h10"></path>
</g>
<path d="M332 51a10 10 0 0 0 10 -10v0a10 10 0 0 1 10 -10"></path>
</g>
</g>
<path d="M376 31h20"></path>
<path d="M40 31a10 10 0 0 1 10 10v39a10 10 0 0 0 10 10"></path>
<g>
<path d="M60 90h52"></path>
<path d="M324 90h52"></path>
<path d="M112 90h10"></path>
<g>
<path d="M122 90h0"></path>
<path d="M174 90h0"></path>
<rect x="122" y="79" width="52" height="22"></rect>
<text x="148" y="94">line</text>
</g>
<path d="M174 90h10"></path>
<g>
<path d="M184 90h0"></path>
<path d="M324 90h0"></path>
<path d="M184 90h20"></path>
<g>
<path d="M204 90h100"></path>
</g>
<path d="M304 90h20"></path>
<path d="M184 90a10 10 0 0 1 10 10v0a10 10 0 0 0 10 10"></path>
<g>
<path d="M204 110h0"></path>
<path d="M304 110h0"></path>
<path d="M 204 110 h 20 m -10 -10 v 20 m 10 -20 v 20"></path>
<path d="M224 110h10"></path>
<g>
<path d="M234 110h0"></path>
<path d="M294 110h0"></path>
<rect x="234" y="99" width="60" height="22"></rect>
<text x="264" y="114">title</text>
</g>
<path d="M294 110h10"></path>
</g>
<path d="M304 110a10 10 0 0 0 10 -10v0a10 10 0 0 1 10 -10"></path>
</g>
</g>
<path d="M376 90a10 10 0 0 0 10 -10v-39a10 10 0 0 1 10 -10"></path>
<path d="M40 31a10 10 0 0 1 10 10v98a10 10 0 0 0 10 10"></path>
<g>
<path d="M60 149h0"></path>
<path d="M376 149h0"></path>
<path d="M60 149h10"></path>
<g>
<path d="M70 149h0"></path>
<path d="M146 149h0"></path>
<rect x="70" y="138" width="76" height="22"></rect>
<text x="108" y="153">details</text>
</g>
<path d="M146 149h10"></path>
<g>
<path d="M156 149h0"></path>
<path d="M376 149h0"></path>
<path d="M156 149h20"></path>
<g>
<path d="M176 149h180"></path>
</g>
<path d="M356 149h20"></path>
<path d="M156 149a10 10 0 0 1 10 10v0a10 10 0 0 0 10 10"></path>
<g>
<path d="M176 169h0"></path>
<path d="M356 169h0"></path>
<path d="M 176 169 h 20 m -10 -10 v 20 m 10 -20 v 20"></path>
<path d="M196 169h10"></path>
<g>
<path d="M206 169h0"></path>
<path d="M346 169h0"></path>
<rect x="206" y="158" width="140" height="22" rx="10" ry="10"></rect>
<text x="276" y="173">&#91;any character&#93;</text>
</g>
<path d="M346 169h10"></path>
</g>
<path d="M356 169a10 10 0 0 0 10 -10v0a10 10 0 0 1 10 -10"></path>
</g>
</g>
<path d="M376 149a10 10 0 0 0 10 -10v-98a10 10 0 0 1 10 -10"></path>
</g>
<path d="M 396 31 h 20 m -10 -10 v 20 m 10 -20 v 20"></path>
</g>
</svg>
