<?xml version="1.0" standalone="no"?>
<!DOCTYPE svg PUBLIC "-//W3C//DTD SVG 1.1//EN"
  "http://www.w3.org/Graphics/SVG/1.1/DTD/svg11.dtd">
<svg xmlns="http://www.w3.org/2000/svg" version="1.1" class="railroad-diagram" width="381" height="110" viewBox="0 0 381 110">
<defs><style type="text/css"><![CDATA[ svg.railroad-diagram {
  background-color: hsl(30,20%,95%);
}
svg.railroad-diagram path {
  stroke-width: 3;
  stroke: black;
  fill: none;
}
svg.railroad-diagram text {
  font: bold 14px monospace;
  text-anchor: middle;
  cursor: pointer;
}
svg.railroad-diagram text.label {
  text-anchor: start;
}
svg.railroad-diagram text.comment {
  font: italic 12px monospace;
}
svg.railroad-diagram rect {
  stroke-width: 3;
  stroke: black;
  fill: hsl(120,100%,90%);
}
 ]]></style></defs>
<g transform="translate(.5 .5)">
<path d="M 20 21 v 20 m 10 -20 v 20 m -10 -10 h 20.5"></path>
<g>
<path d="M40 31h0"></path>
<path d="M340 31h0"></path>
<path d="M40 31h20"></path>
<g>
<path d="M60 31h0"></path>
<path d="M320 31h0"></path>
<path d="M60 31h10"></path>
<g>
<path d="M70 31h0"></path>
<path d="M158 31h0"></path>
<path d="M70 31h10"></path>
<g>
<path d="M80 31h0"></path>
<path d="M148 31h0"></path>
<rect x="80" y="20" width="68" height="22"></rect>
<text x="114" y="35">cblock</text>
</g>
<path d="M148 31h10"></path>
<path d="M80 31a10 10 0 0 0 -10 10v0a10 10 0 0 0 10 10"></path>
<g>
<path d="M80 51h68"></path>
</g>
<path d="M148 51a10 10 0 0 0 10 -10v0a10 10 0 0 0 -10 -10"></path>
</g>
<path d="M158 31h10"></path>
<path d="M168 31h10"></path>
<g>
<path d="M178 31h0"></path>
<path d="M230 31h0"></path>
<rect x="178" y="20" width="52" height="22"></rect>
<text x="204" y="35">line</text>
</g>
<path d="M230 31h10"></path>
<path d="M240 31h10"></path>
<g>
<path d="M250 31h0"></path>
<path d="M310 31h0"></path>
<rect x="250" y="20" width="60" height="22"></rect>
<text x="280" y="35">title</text>
</g>
<path d="M310 31h10"></path>
</g>
<path d="M320 31h20"></path>
<path d="M40 31a10 10 0 0 1 10 10v19a10 10 0 0 0 10 10"></path>
<g>
<path d="M60 70h86"></path>
<path d="M234 70h86"></path>
<path d="M146 70h10"></path>
<g>
<path d="M156 70h0"></path>
<path d="M224 70h0"></path>
<rect x="156" y="59" width="68" height="22"></rect>
<text x="190" y="74">cblock</text>
</g>
<path d="M224 70h10"></path>
<path d="M156 70a10 10 0 0 0 -10 10v0a10 10 0 0 0 10 10"></path>
<g>
<path d="M156 90h68"></path>
</g>
<path d="M224 90a10 10 0 0 0 10 -10v0a10 10 0 0 0 -10 -10"></path>
</g>
<path d="M320 70a10 10 0 0 0 10 -10v-19a10 10 0 0 1 10 -10"></path>
</g>
<path d="M 340 31 h 20 m -10 -10 v 20 m 10 -20 v 20"></path>
</g>
</svg>
