<?xml version="1.0" standalone="no"?>
<!DOCTYPE svg PUBLIC "-//W3C//DTD SVG 1.1//EN"
  "http://www.w3.org/Graphics/SVG/1.1/DTD/svg11.dtd">
<svg xmlns="http://www.w3.org/2000/svg" version="1.1" class="railroad-diagram" width="321" height="92" viewBox="0 0 321 92">
<defs><style type="text/css"><![CDATA[ svg.railroad-diagram {
  background-color: hsl(30,20%,95%);
}
svg.railroad-diagram path {
  stroke-width: 3;
  stroke: black;
  fill: none;
}
svg.railroad-diagram text {
  font: bold 14px monospace;
  text-anchor: middle;
  cursor: pointer;
}
svg.railroad-diagram text.label {
  text-anchor: start;
}
svg.railroad-diagram text.comment {
  font: italic 12px monospace;
}
svg.railroad-diagram rect {
  stroke-width: 3;
  stroke: black;
  fill: hsl(120,100%,90%);
}
 ]]></style></defs>
<g transform="translate(.5 .5)">
<path d="M 20 21 v 20 m 10 -20 v 20 m -10 -10 h 20.5"></path>
<g>
<path d="M40 31h0"></path>
<path d="M280 31h0"></path>
<path d="M40 31h20"></path>
<g>
<path d="M60 31h0"></path>
<path d="M260 31h0"></path>
<path d="M60 31h10"></path>
<g>
<path d="M70 31h0"></path>
<path d="M146 31h0"></path>
<rect x="70" y="20" width="76" height="22"></rect>
<text x="108" y="35">options</text>
</g>
<path d="M146 31h10"></path>
<path d="M156 31h10"></path>
<g>
<path d="M166 31h0"></path>
<path d="M250 31h0"></path>
<rect x="166" y="20" width="84" height="22"></rect>
<text x="208" y="35">timeline</text>
</g>
<path d="M250 31h10"></path>
</g>
<path d="M260 31h20"></path>
<path d="M40 31a10 10 0 0 1 10 10v10a10 10 0 0 0 10 10"></path>
<g>
<path d="M60 61h58"></path>
<path d="M202 61h58"></path>
<rect x="118" y="50" width="84" height="22"></rect>
<text x="160" y="65">timeline</text>
</g>
<path d="M260 61a10 10 0 0 0 10 -10v-10a10 10 0 0 1 10 -10"></path>
</g>
<path d="M 280 31 h 20 m -10 -10 v 20 m 10 -20 v 20"></path>
</g>
</svg>
