<?xml version="1.0" standalone="no"?>
<!DOCTYPE svg PUBLIC "-//W3C//DTD SVG 1.1//EN"
  "http://www.w3.org/Graphics/SVG/1.1/DTD/svg11.dtd">
<svg xmlns="http://www.w3.org/2000/svg" version="1.1" class="railroad-diagram" width="513" height="122" viewBox="0 0 513 122">
<defs><style type="text/css"><![CDATA[ svg.railroad-diagram {
  background-color: hsl(30,20%,95%);
}
svg.railroad-diagram path {
  stroke-width: 3;
  stroke: black;
  fill: none;
}
svg.railroad-diagram text {
  font: bold 14px monospace;
  text-anchor: middle;
  cursor: pointer;
}
svg.railroad-diagram text.label {
  text-anchor: start;
}
svg.railroad-diagram text.comment {
  font: italic 12px monospace;
}
svg.railroad-diagram rect {
  stroke-width: 3;
  stroke: black;
  fill: hsl(120,100%,90%);
}
 ]]></style></defs>
<g transform="translate(.5 .5)">
<path d="M 20 21 v 20 m 10 -20 v 20 m -10 -10 h 20.5"></path>
<g>
<path d="M40 31h0"></path>
<path d="M472 31h0"></path>
<path d="M40 31h20"></path>
<g>
<path d="M60 31h0"></path>
<path d="M452 31h0"></path>
<path d="M60 31h10"></path>
<g>
<path d="M70 31h0"></path>
<path d="M98 31h0"></path>
<rect x="70" y="20" width="28" height="22" rx="10" ry="10"></rect>
<text x="84" y="35">%</text>
</g>
<path d="M98 31h10"></path>
<path d="M108 31h10"></path>
<g>
<path d="M118 31h0"></path>
<path d="M170 31h0"></path>
<rect x="118" y="20" width="52" height="22"></rect>
<text x="144" y="35">date</text>
</g>
<path d="M170 31h10"></path>
<path d="M180 31h10"></path>
<g>
<path d="M190 31h0"></path>
<path d="M218 31h0"></path>
<rect x="190" y="20" width="28" height="22" rx="10" ry="10"></rect>
<text x="204" y="35">%</text>
</g>
<path d="M218 31h10"></path>
<path d="M228 31h10"></path>
<g>
<path d="M238 31h0"></path>
<path d="M394 31h0"></path>
<rect x="238" y="20" width="156" height="22"></rect>
<text x="316" y="35">worldtimeduration</text>
</g>
<path d="M394 31h10"></path>
<path d="M404 31h10"></path>
<g>
<path d="M414 31h0"></path>
<path d="M442 31h0"></path>
<rect x="414" y="20" width="28" height="22" rx="10" ry="10"></rect>
<text x="428" y="35">%</text>
</g>
<path d="M442 31h10"></path>
</g>
<path d="M452 31h20"></path>
<path d="M40 31a10 10 0 0 1 10 10v10a10 10 0 0 0 10 10"></path>
<g>
<path d="M60 61h32"></path>
<path d="M420 61h32"></path>
<path d="M92 61h10"></path>
<g>
<path d="M102 61h0"></path>
<path d="M130 61h0"></path>
<rect x="102" y="50" width="28" height="22" rx="10" ry="10"></rect>
<text x="116" y="65">%</text>
</g>
<path d="M130 61h10"></path>
<path d="M140 61h10"></path>
<g>
<path d="M150 61h0"></path>
<path d="M202 61h0"></path>
<rect x="150" y="50" width="52" height="22"></rect>
<text x="176" y="65">date</text>
</g>
<path d="M202 61h10"></path>
<path d="M212 61h10"></path>
<g>
<path d="M222 61h0"></path>
<path d="M250 61h0"></path>
<rect x="222" y="50" width="28" height="22" rx="10" ry="10"></rect>
<text x="236" y="65">%</text>
</g>
<path d="M250 61h10"></path>
<path d="M260 61h10"></path>
<g>
<path d="M270 61h0"></path>
<path d="M362 61h0"></path>
<rect x="270" y="50" width="92" height="22"></rect>
<text x="316" y="65">worldtime</text>
</g>
<path d="M362 61h10"></path>
<path d="M372 61h10"></path>
<g>
<path d="M382 61h0"></path>
<path d="M410 61h0"></path>
<rect x="382" y="50" width="28" height="22" rx="10" ry="10"></rect>
<text x="396" y="65">%</text>
</g>
<path d="M410 61h10"></path>
</g>
<path d="M452 61a10 10 0 0 0 10 -10v-10a10 10 0 0 1 10 -10"></path>
<path d="M40 31a10 10 0 0 1 10 10v40a10 10 0 0 0 10 10"></path>
<g>
<path d="M60 91h112"></path>
<path d="M340 91h112"></path>
<path d="M172 91h10"></path>
<g>
<path d="M182 91h0"></path>
<path d="M210 91h0"></path>
<rect x="182" y="80" width="28" height="22" rx="10" ry="10"></rect>
<text x="196" y="95">%</text>
</g>
<path d="M210 91h10"></path>
<path d="M220 91h10"></path>
<g>
<path d="M230 91h0"></path>
<path d="M282 91h0"></path>
<rect x="230" y="80" width="52" height="22"></rect>
<text x="256" y="95">date</text>
</g>
<path d="M282 91h10"></path>
<path d="M292 91h10"></path>
<g>
<path d="M302 91h0"></path>
<path d="M330 91h0"></path>
<rect x="302" y="80" width="28" height="22" rx="10" ry="10"></rect>
<text x="316" y="95">%</text>
</g>
<path d="M330 91h10"></path>
</g>
<path d="M452 91a10 10 0 0 0 10 -10v-40a10 10 0 0 1 10 -10"></path>
</g>
<path d="M 472 31 h 20 m -10 -10 v 20 m 10 -20 v 20"></path>
</g>
</svg>
