<?xml version="1.0" standalone="no"?>
<!DOCTYPE svg PUBLIC "-//W3C//DTD SVG 1.1//EN"
  "http://www.w3.org/Graphics/SVG/1.1/DTD/svg11.dtd">
<svg xmlns="http://www.w3.org/2000/svg" version="1.1" class="railroad-diagram" width="429" height="81" viewBox="0 0 429 81">
<defs><style type="text/css"><![CDATA[ svg.railroad-diagram {
  background-color: hsl(30,20%,95%);
}
svg.railroad-diagram path {
  stroke-width: 3;
  stroke: black;
  fill: none;
}
svg.railroad-diagram text {
  font: bold 14px monospace;
  text-anchor: middle;
  cursor: pointer;
}
svg.railroad-diagram text.label {
  text-anchor: start;
}
svg.railroad-diagram text.comment {
  font: italic 12px monospace;
}
svg.railroad-diagram rect {
  stroke-width: 3;
  stroke: black;
  fill: hsl(120,100%,90%);
}
 ]]></style></defs>
<g transform="translate(.5 .5)">
<path d="M 20 31 v 20 m 10 -20 v 20 m -10 -10 h 20.5"></path>
<g>
<path d="M40 41h0"></path>
<path d="M388 41h0"></path>
<path d="M40 41h10"></path>
<g>
<path d="M50 41h0"></path>
<path d="M78 41h0"></path>
<rect x="50" y="30" width="28" height="22" rx="10" ry="10"></rect>
<text x="64" y="45">|</text>
</g>
<path d="M78 41h10"></path>
<path d="M88 41h10"></path>
<g>
<path d="M98 41h0"></path>
<path d="M170 41h0"></path>
<path d="M98 41h10"></path>
<g>
<path d="M108 41h0"></path>
<path d="M160 41h0"></path>
<rect x="108" y="30" width="52" height="22" rx="10" ry="10"></rect>
<text x="134" y="45">&#91;^:&#93;</text>
</g>
<path d="M160 41h10"></path>
<path d="M108 41a10 10 0 0 0 -10 10v0a10 10 0 0 0 10 10"></path>
<g>
<path d="M108 61h52"></path>
</g>
<path d="M160 61a10 10 0 0 0 10 -10v0a10 10 0 0 0 -10 -10"></path>
</g>
<path d="M170 41h10"></path>
<path d="M180 41h10"></path>
<g>
<path d="M190 41h0"></path>
<path d="M218 41h0"></path>
<rect x="190" y="30" width="28" height="22" rx="10" ry="10"></rect>
<text x="204" y="45">:</text>
</g>
<path d="M218 41h10"></path>
<g>
<path d="M228 41h0"></path>
<path d="M340 41h0"></path>
<path d="M228 41a10 10 0 0 0 10 -10v0a10 10 0 0 1 10 -10"></path>
<g>
<path d="M248 21h72"></path>
</g>
<path d="M320 21a10 10 0 0 1 10 10v0a10 10 0 0 0 10 10"></path>
<path d="M228 41h20"></path>
<g>
<path d="M248 41h0"></path>
<path d="M320 41h0"></path>
<path d="M248 41h10"></path>
<g>
<path d="M258 41h0"></path>
<path d="M310 41h0"></path>
<rect x="258" y="30" width="52" height="22" rx="10" ry="10"></rect>
<text x="284" y="45">&#91;^|&#93;</text>
</g>
<path d="M310 41h10"></path>
<path d="M258 41a10 10 0 0 0 -10 10v0a10 10 0 0 0 10 10"></path>
<g>
<path d="M258 61h52"></path>
</g>
<path d="M310 61a10 10 0 0 0 10 -10v0a10 10 0 0 0 -10 -10"></path>
</g>
<path d="M320 41h20"></path>
</g>
<path d="M340 41h10"></path>
<g>
<path d="M350 41h0"></path>
<path d="M378 41h0"></path>
<rect x="350" y="30" width="28" height="22" rx="10" ry="10"></rect>
<text x="364" y="45">|</text>
</g>
<path d="M378 41h10"></path>
</g>
<path d="M 388 41 h 20 m -10 -10 v 20 m 10 -20 v 20"></path>
</g>
</svg>
