<?xml version="1.0" standalone="no"?>
<!DOCTYPE svg PUBLIC "-//W3C//DTD SVG 1.1//EN"
  "http://www.w3.org/Graphics/SVG/1.1/DTD/svg11.dtd">
<svg xmlns="http://www.w3.org/2000/svg" version="1.1" class="railroad-diagram" width="577" height="91" viewBox="0 0 577 91">
<defs><style type="text/css"><![CDATA[ svg.railroad-diagram {
  background-color: hsl(30,20%,95%);
}
svg.railroad-diagram path {
  stroke-width: 3;
  stroke: black;
  fill: none;
}
svg.railroad-diagram text {
  font: bold 14px monospace;
  text-anchor: middle;
  cursor: pointer;
}
svg.railroad-diagram text.label {
  text-anchor: start;
}
svg.railroad-diagram text.comment {
  font: italic 12px monospace;
}
svg.railroad-diagram rect {
  stroke-width: 3;
  stroke: black;
  fill: hsl(120,100%,90%);
}
 ]]></style></defs>
<g transform="translate(.5 .5)">
<path d="M 20 41 v 20 m 10 -20 v 20 m -10 -10 h 20.5"></path>
<g>
<path d="M40 51h0"></path>
<path d="M536 51h0"></path>
<path d="M40 51h10"></path>
<g>
<path d="M50 51h0"></path>
<path d="M166 51h0"></path>
<rect x="50" y="40" width="116" height="22"></rect>
<text x="108" y="55">optionsstart</text>
</g>
<path d="M166 51h10"></path>
<g>
<path d="M176 51h0"></path>
<path d="M536 51h0"></path>
<path d="M176 51a10 10 0 0 0 10 -10v-9a10 10 0 0 1 10 -10"></path>
<g>
<path d="M196 22h320"></path>
</g>
<path d="M516 22a10 10 0 0 1 10 10v9a10 10 0 0 0 10 10"></path>
<path d="M176 51h20"></path>
<g>
<path d="M196 51h0"></path>
<path d="M516 51h0"></path>
<path d="M196 51h10"></path>
<g>
<path d="M206 51h0"></path>
<path d="M506 51h0"></path>
<path d="M206 51h10"></path>
<g>
<path d="M216 51h0"></path>
<path d="M284 51h0"></path>
<rect x="216" y="40" width="68" height="22"></rect>
<text x="250" y="55">option</text>
</g>
<path d="M284 51h10"></path>
<path d="M294 51h10"></path>
<g>
<path d="M304 51h0"></path>
<path d="M340 51h0"></path>
<rect x="304" y="40" width="36" height="22" rx="10" ry="10"></rect>
<text x="322" y="55">\n</text>
</g>
<path d="M340 51h10"></path>
<g>
<path d="M350 51h0"></path>
<path d="M506 51h0"></path>
<path d="M350 51a10 10 0 0 0 10 -10v0a10 10 0 0 1 10 -10"></path>
<g>
<path d="M370 31h116"></path>
</g>
<path d="M486 31a10 10 0 0 1 10 10v0a10 10 0 0 0 10 10"></path>
<path d="M350 51h20"></path>
<g>
<path d="M370 51h0"></path>
<path d="M486 51h0"></path>
<rect x="370" y="40" width="116" height="22"></rect>
<text x="428" y="55">optionsblock</text>
</g>
<path d="M486 51h20"></path>
</g>
</g>
<path d="M506 51h10"></path>
<path d="M206 51a10 10 0 0 0 -10 10v0a10 10 0 0 0 10 10"></path>
<g>
<path d="M206 71h300"></path>
</g>
<path d="M506 71a10 10 0 0 0 10 -10v0a10 10 0 0 0 -10 -10"></path>
</g>
<path d="M516 51h20"></path>
</g>
</g>
<path d="M 536 51 h 20 m -10 -10 v 20 m 10 -20 v 20"></path>
</g>
</svg>
