<?xml version="1.0" standalone="no"?>
<!DOCTYPE svg PUBLIC "-//W3C//DTD SVG 1.1//EN"
  "http://www.w3.org/Graphics/SVG/1.1/DTD/svg11.dtd">
<svg xmlns="http://www.w3.org/2000/svg" version="1.1" class="railroad-diagram" width="1045" height="81" viewBox="0 0 1045 81">
<defs><style type="text/css"><![CDATA[ svg.railroad-diagram {
  background-color: hsl(30,20%,95%);
}
svg.railroad-diagram path {
  stroke-width: 3;
  stroke: black;
  fill: none;
}
svg.railroad-diagram text {
  font: bold 14px monospace;
  text-anchor: middle;
  cursor: pointer;
}
svg.railroad-diagram text.label {
  text-anchor: start;
}
svg.railroad-diagram text.comment {
  font: italic 12px monospace;
}
svg.railroad-diagram rect {
  stroke-width: 3;
  stroke: black;
  fill: hsl(120,100%,90%);
}
 ]]></style></defs>
<g transform="translate(.5 .5)">
<path d="M 20 31 v 20 m 10 -20 v 20 m -10 -10 h 20.5"></path>
<g>
<path d="M40 41h0"></path>
<path d="M1004 41h0"></path>
<path d="M40 41h10"></path>
<g>
<path d="M50 41h0"></path>
<path d="M86 41h0"></path>
<rect x="50" y="30" width="36" height="22" rx="10" ry="10"></rect>
<text x="68" y="45">|-</text>
</g>
<path d="M86 41h10"></path>
<g>
<path d="M96 41h0"></path>
<path d="M184 41h0"></path>
<path d="M96 41a10 10 0 0 0 10 -10v0a10 10 0 0 1 10 -10"></path>
<g>
<path d="M116 21h48"></path>
</g>
<path d="M164 21a10 10 0 0 1 10 10v0a10 10 0 0 0 10 10"></path>
<path d="M96 41h20"></path>
<g>
<path d="M116 41h0"></path>
<path d="M164 41h0"></path>
<path d="M116 41h10"></path>
<g>
<path d="M126 41h0"></path>
<path d="M154 41h0"></path>
<rect x="126" y="30" width="28" height="22" rx="10" ry="10"></rect>
<text x="140" y="45">-</text>
</g>
<path d="M154 41h10"></path>
<path d="M126 41a10 10 0 0 0 -10 10v0a10 10 0 0 0 10 10"></path>
<g>
<path d="M126 61h28"></path>
</g>
<path d="M154 61a10 10 0 0 0 10 -10v0a10 10 0 0 0 -10 -10"></path>
</g>
<path d="M164 41h20"></path>
</g>
<path d="M184 41h10"></path>
<g>
<path d="M194 41h0"></path>
<path d="M222 41h0"></path>
<rect x="194" y="30" width="28" height="22" rx="10" ry="10"></rect>
<text x="208" y="45">%</text>
</g>
<path d="M222 41h10"></path>
<g>
<path d="M232 41h0"></path>
<path d="M644 41h0"></path>
<path d="M232 41h10"></path>
<g>
<path d="M242 41h0"></path>
<path d="M270 41h0"></path>
<rect x="242" y="30" width="28" height="22" rx="10" ry="10"></rect>
<text x="256" y="45">t</text>
</g>
<path d="M270 41h10"></path>
<g>
<path d="M280 41h0"></path>
<path d="M364 41h0"></path>
<path d="M280 41a10 10 0 0 0 10 -10v0a10 10 0 0 1 10 -10"></path>
<g>
<path d="M300 21h44"></path>
</g>
<path d="M344 21a10 10 0 0 1 10 10v0a10 10 0 0 0 10 10"></path>
<path d="M280 41h20"></path>
<g>
<path d="M300 41h0"></path>
<path d="M344 41h0"></path>
<rect x="300" y="30" width="44" height="22" rx="10" ry="10"></rect>
<text x="322" y="45">ime</text>
</g>
<path d="M344 41h20"></path>
</g>
<path d="M364 41h10"></path>
<g>
<path d="M374 41h0"></path>
<path d="M402 41h0"></path>
<rect x="374" y="30" width="28" height="22" rx="10" ry="10"></rect>
<text x="388" y="45">l</text>
</g>
<path d="M402 41h10"></path>
<g>
<path d="M412 41h0"></path>
<path d="M480 41h0"></path>
<path d="M412 41a10 10 0 0 0 10 -10v0a10 10 0 0 1 10 -10"></path>
<g>
<path d="M432 21h28"></path>
</g>
<path d="M460 21a10 10 0 0 1 10 10v0a10 10 0 0 0 10 10"></path>
<path d="M412 41h20"></path>
<g>
<path d="M432 41h0"></path>
<path d="M460 41h0"></path>
<rect x="432" y="30" width="28" height="22" rx="10" ry="10"></rect>
<text x="446" y="45">i</text>
</g>
<path d="M460 41h20"></path>
</g>
<path d="M480 41h10"></path>
<g>
<path d="M490 41h0"></path>
<path d="M518 41h0"></path>
<rect x="490" y="30" width="28" height="22" rx="10" ry="10"></rect>
<text x="504" y="45">n</text>
</g>
<path d="M518 41h10"></path>
<g>
<path d="M528 41h0"></path>
<path d="M596 41h0"></path>
<path d="M528 41a10 10 0 0 0 10 -10v0a10 10 0 0 1 10 -10"></path>
<g>
<path d="M548 21h28"></path>
</g>
<path d="M576 21a10 10 0 0 1 10 10v0a10 10 0 0 0 10 10"></path>
<path d="M528 41h20"></path>
<g>
<path d="M548 41h0"></path>
<path d="M576 41h0"></path>
<rect x="548" y="30" width="28" height="22" rx="10" ry="10"></rect>
<text x="562" y="45">e</text>
</g>
<path d="M576 41h20"></path>
</g>
<path d="M596 41h10"></path>
<g>
<path d="M606 41h0"></path>
<path d="M634 41h0"></path>
<rect x="606" y="30" width="28" height="22" rx="10" ry="10"></rect>
<text x="620" y="45">r</text>
</g>
<path d="M634 41h10"></path>
</g>
<path d="M644 41h10"></path>
<g>
<path d="M654 41h0"></path>
<path d="M682 41h0"></path>
<rect x="654" y="30" width="28" height="22" rx="10" ry="10"></rect>
<text x="668" y="45">%</text>
</g>
<path d="M682 41h10"></path>
<g>
<path d="M692 41h0"></path>
<path d="M780 41h0"></path>
<path d="M692 41a10 10 0 0 0 10 -10v0a10 10 0 0 1 10 -10"></path>
<g>
<path d="M712 21h48"></path>
</g>
<path d="M760 21a10 10 0 0 1 10 10v0a10 10 0 0 0 10 10"></path>
<path d="M692 41h20"></path>
<g>
<path d="M712 41h0"></path>
<path d="M760 41h0"></path>
<path d="M712 41h10"></path>
<g>
<path d="M722 41h0"></path>
<path d="M750 41h0"></path>
<rect x="722" y="30" width="28" height="22" rx="10" ry="10"></rect>
<text x="736" y="45">-</text>
</g>
<path d="M750 41h10"></path>
<path d="M722 41a10 10 0 0 0 -10 10v0a10 10 0 0 0 10 10"></path>
<g>
<path d="M722 61h28"></path>
</g>
<path d="M750 61a10 10 0 0 0 10 -10v0a10 10 0 0 0 -10 -10"></path>
</g>
<path d="M760 41h20"></path>
</g>
<path d="M780 41h10"></path>
<g>
<path d="M790 41h0"></path>
<path d="M818 41h0"></path>
<rect x="790" y="30" width="28" height="22" rx="10" ry="10"></rect>
<text x="804" y="45">|</text>
</g>
<path d="M818 41h10"></path>
<g>
<path d="M828 41h0"></path>
<path d="M948 41h0"></path>
<path d="M828 41a10 10 0 0 0 10 -10v0a10 10 0 0 1 10 -10"></path>
<g>
<path d="M848 21h80"></path>
</g>
<path d="M928 21a10 10 0 0 1 10 10v0a10 10 0 0 0 10 10"></path>
<path d="M828 41h20"></path>
<g>
<path d="M848 41h0"></path>
<path d="M928 41h0"></path>
<path d="M848 41h10"></path>
<g>
<path d="M858 41h0"></path>
<path d="M918 41h0"></path>
<rect x="858" y="30" width="60" height="22" rx="10" ry="10"></rect>
<text x="888" y="45">&#91; \t&#93;</text>
</g>
<path d="M918 41h10"></path>
<path d="M858 41a10 10 0 0 0 -10 10v0a10 10 0 0 0 10 10"></path>
<g>
<path d="M858 61h60"></path>
</g>
<path d="M918 61a10 10 0 0 0 10 -10v0a10 10 0 0 0 -10 -10"></path>
</g>
<path d="M928 41h20"></path>
</g>
<path d="M948 41h10"></path>
<g>
<path d="M958 41h0"></path>
<path d="M994 41h0"></path>
<rect x="958" y="30" width="36" height="22" rx="10" ry="10"></rect>
<text x="976" y="45">\n</text>
</g>
<path d="M994 41h10"></path>
</g>
<path d="M 1004 41 h 20 m -10 -10 v 20 m 10 -20 v 20"></path>
</g>
</svg>
