<?xml version="1.0" standalone="no"?>
<!DOCTYPE svg PUBLIC "-//W3C//DTD SVG 1.1//EN"
  "http://www.w3.org/Graphics/SVG/1.1/DTD/svg11.dtd">
<svg xmlns="http://www.w3.org/2000/svg" version="1.1" class="railroad-diagram" width="317" height="71" viewBox="0 0 317 71">
<defs><style type="text/css"><![CDATA[ svg.railroad-diagram {
  background-color: hsl(30,20%,95%);
}
svg.railroad-diagram path {
  stroke-width: 3;
  stroke: black;
  fill: none;
}
svg.railroad-diagram text {
  font: bold 14px monospace;
  text-anchor: middle;
  cursor: pointer;
}
svg.railroad-diagram text.label {
  text-anchor: start;
}
svg.railroad-diagram text.comment {
  font: italic 12px monospace;
}
svg.railroad-diagram rect {
  stroke-width: 3;
  stroke: black;
  fill: hsl(120,100%,90%);
}
 ]]></style></defs>
<g transform="translate(.5 .5)">
<path d="M 20 21 v 20 m 10 -20 v 20 m -10 -10 h 20.5"></path>
<g>
<path d="M40 31h0"></path>
<path d="M276 31h0"></path>
<path d="M40 31h10"></path>
<g>
<path d="M50 31h0"></path>
<path d="M110 31h0"></path>
<rect x="50" y="20" width="60" height="22"></rect>
<text x="80" y="35">level</text>
</g>
<path d="M110 31h10"></path>
<path d="M120 31h10"></path>
<g>
<path d="M130 31h0"></path>
<path d="M210 31h0"></path>
<path d="M130 31h10"></path>
<g>
<path d="M140 31h0"></path>
<path d="M200 31h0"></path>
<rect x="140" y="20" width="60" height="22" rx="10" ry="10"></rect>
<text x="170" y="35">&#91;^\n&#93;</text>
</g>
<path d="M200 31h10"></path>
<path d="M140 31a10 10 0 0 0 -10 10v0a10 10 0 0 0 10 10"></path>
<g>
<path d="M140 51h60"></path>
</g>
<path d="M200 51a10 10 0 0 0 10 -10v0a10 10 0 0 0 -10 -10"></path>
</g>
<path d="M210 31h10"></path>
<path d="M220 31h10"></path>
<g>
<path d="M230 31h0"></path>
<path d="M266 31h0"></path>
<rect x="230" y="20" width="36" height="22" rx="10" ry="10"></rect>
<text x="248" y="35">\n</text>
</g>
<path d="M266 31h10"></path>
</g>
<path d="M 276 31 h 20 m -10 -10 v 20 m 10 -20 v 20"></path>
</g>
</svg>
