<?xml version="1.0" standalone="no"?>
<!DOCTYPE svg PUBLIC "-//W3C//DTD SVG 1.1//EN"
  "http://www.w3.org/Graphics/SVG/1.1/DTD/svg11.dtd">
<svg xmlns="http://www.w3.org/2000/svg" version="1.1" class="railroad-diagram" width="389" height="92" viewBox="0 0 389 92">
<defs><style type="text/css"><![CDATA[ svg.railroad-diagram {
  background-color: hsl(30,20%,95%);
}
svg.railroad-diagram path {
  stroke-width: 3;
  stroke: black;
  fill: none;
}
svg.railroad-diagram text {
  font: bold 14px monospace;
  text-anchor: middle;
  cursor: pointer;
}
svg.railroad-diagram text.label {
  text-anchor: start;
}
svg.railroad-diagram text.comment {
  font: italic 12px monospace;
}
svg.railroad-diagram rect {
  stroke-width: 3;
  stroke: black;
  fill: hsl(120,100%,90%);
}
 ]]></style></defs>
<g transform="translate(.5 .5)">
<path d="M 20 21 v 20 m 10 -20 v 20 m -10 -10 h 20.5"></path>
<g>
<path d="M40 31h0"></path>
<path d="M348 31h0"></path>
<path d="M40 31h10"></path>
<g>
<path d="M50 31h0"></path>
<path d="M142 31h0"></path>
<rect x="50" y="20" width="92" height="22"></rect>
<text x="96" y="35">worldtime</text>
</g>
<path d="M142 31h10"></path>
<g>
<path d="M152 31h0"></path>
<path d="M236 31h0"></path>
<path d="M152 31h20"></path>
<g>
<path d="M172 31h8"></path>
<path d="M208 31h8"></path>
<rect x="180" y="20" width="28" height="22" rx="10" ry="10"></rect>
<text x="194" y="35">…</text>
</g>
<path d="M216 31h20"></path>
<path d="M152 31a10 10 0 0 1 10 10v10a10 10 0 0 0 10 10"></path>
<g>
<path d="M172 61h0"></path>
<path d="M216 61h0"></path>
<rect x="172" y="50" width="44" height="22" rx="10" ry="10"></rect>
<text x="194" y="65">...</text>
</g>
<path d="M216 61a10 10 0 0 0 10 -10v-10a10 10 0 0 1 10 -10"></path>
</g>
<path d="M236 31h10"></path>
<g>
<path d="M246 31h0"></path>
<path d="M338 31h0"></path>
<rect x="246" y="20" width="92" height="22"></rect>
<text x="292" y="35">worldtime</text>
</g>
<path d="M338 31h10"></path>
</g>
<path d="M 348 31 h 20 m -10 -10 v 20 m 10 -20 v 20"></path>
</g>
</svg>
