<?xml version="1.0" standalone="no"?>
<!DOCTYPE svg PUBLIC "-//W3C//DTD SVG 1.1//EN"
  "http://www.w3.org/Graphics/SVG/1.1/DTD/svg11.dtd">
<svg xmlns="http://www.w3.org/2000/svg" version="1.1" class="railroad-diagram" width="497" height="221" viewBox="0 0 497 221">
<defs><style type="text/css"><![CDATA[ svg.railroad-diagram {
  background-color: hsl(30,20%,95%);
}
svg.railroad-diagram path {
  stroke-width: 3;
  stroke: black;
  fill: none;
}
svg.railroad-diagram text {
  font: bold 14px monospace;
  text-anchor: middle;
  cursor: pointer;
}
svg.railroad-diagram text.label {
  text-anchor: start;
}
svg.railroad-diagram text.comment {
  font: italic 12px monospace;
}
svg.railroad-diagram rect {
  stroke-width: 3;
  stroke: black;
  fill: hsl(120,100%,90%);
}
 ]]></style></defs>
<g transform="translate(.5 .5)">
<path d="M 20 21 v 20 m 10 -20 v 20 m -10 -10 h 20.5"></path>
<g>
<path d="M40 31h0"></path>
<path d="M456 31h0"></path>
<path d="M40 31h20"></path>
<g>
<path d="M60 31h0"></path>
<path d="M436 31h0"></path>
<path d="M60 31h10"></path>
<g>
<path d="M70 31h0"></path>
<path d="M98 31h0"></path>
<rect x="70" y="20" width="28" height="22" rx="10" ry="10"></rect>
<text x="84" y="35">(</text>
</g>
<path d="M98 31h10"></path>
<path d="M108 31h10"></path>
<g>
<path d="M118 31h0"></path>
<path d="M214 31h0"></path>
<path d="M118 31h10"></path>
<g>
<path d="M128 31h0"></path>
<path d="M204 31h0"></path>
<rect x="128" y="20" width="76" height="22" rx="10" ry="10"></rect>
<text x="166" y="35">&#91;a-z&#95;&#93;i</text>
</g>
<path d="M204 31h10"></path>
<path d="M128 31a10 10 0 0 0 -10 10v0a10 10 0 0 0 10 10"></path>
<g>
<path d="M128 51h76"></path>
</g>
<path d="M204 51a10 10 0 0 0 10 -10v0a10 10 0 0 0 -10 -10"></path>
</g>
<path d="M214 31h10"></path>
<path d="M224 31h10"></path>
<g>
<path d="M234 31h0"></path>
<path d="M262 31h0"></path>
<rect x="234" y="20" width="28" height="22" rx="10" ry="10"></rect>
<text x="248" y="35">/</text>
</g>
<path d="M262 31h10"></path>
<path d="M272 31h10"></path>
<g>
<path d="M282 31h0"></path>
<path d="M378 31h0"></path>
<path d="M282 31h10"></path>
<g>
<path d="M292 31h0"></path>
<path d="M368 31h0"></path>
<rect x="292" y="20" width="76" height="22" rx="10" ry="10"></rect>
<text x="330" y="35">&#91;a-z&#95;&#93;i</text>
</g>
<path d="M368 31h10"></path>
<path d="M292 31a10 10 0 0 0 -10 10v0a10 10 0 0 0 10 10"></path>
<g>
<path d="M292 51h76"></path>
</g>
<path d="M368 51a10 10 0 0 0 10 -10v0a10 10 0 0 0 -10 -10"></path>
</g>
<path d="M378 31h10"></path>
<path d="M388 31h10"></path>
<g>
<path d="M398 31h0"></path>
<path d="M426 31h0"></path>
<rect x="398" y="20" width="28" height="22" rx="10" ry="10"></rect>
<text x="412" y="35">)</text>
</g>
<path d="M426 31h10"></path>
</g>
<path d="M436 31h20"></path>
<path d="M40 31a10 10 0 0 1 10 10v19a10 10 0 0 0 10 10"></path>
<g>
<path d="M60 70h136"></path>
<path d="M300 70h136"></path>
<path d="M196 70h10"></path>
<g>
<path d="M206 70h0"></path>
<path d="M234 70h0"></path>
<rect x="206" y="59" width="28" height="22" rx="10" ry="10"></rect>
<text x="220" y="74">Z</text>
</g>
<path d="M234 70h10"></path>
<path d="M244 70h10"></path>
<g>
<path d="M254 70h0"></path>
<path d="M290 70h0"></path>
<rect x="254" y="59" width="36" height="22"></rect>
<text x="272" y="74">tz</text>
</g>
<path d="M290 70h10"></path>
</g>
<path d="M436 70a10 10 0 0 0 10 -10v-19a10 10 0 0 1 10 -10"></path>
<path d="M40 31a10 10 0 0 1 10 10v49a10 10 0 0 0 10 10"></path>
<g>
<path d="M60 100h84"></path>
<path d="M352 100h84"></path>
<path d="M144 100h10"></path>
<g>
<path d="M154 100h0"></path>
<path d="M182 100h0"></path>
<rect x="154" y="89" width="28" height="22" rx="10" ry="10"></rect>
<text x="168" y="104">+</text>
</g>
<path d="M182 100h10"></path>
<path d="M192 100h10"></path>
<g>
<path d="M202 100h0"></path>
<path d="M238 100h0"></path>
<rect x="202" y="89" width="36" height="22"></rect>
<text x="220" y="104">d2</text>
</g>
<path d="M238 100h10"></path>
<path d="M248 100h10"></path>
<g>
<path d="M258 100h0"></path>
<path d="M286 100h0"></path>
<rect x="258" y="89" width="28" height="22" rx="10" ry="10"></rect>
<text x="272" y="104">:</text>
</g>
<path d="M286 100h10"></path>
<path d="M296 100h10"></path>
<g>
<path d="M306 100h0"></path>
<path d="M342 100h0"></path>
<rect x="306" y="89" width="36" height="22"></rect>
<text x="324" y="104">d2</text>
</g>
<path d="M342 100h10"></path>
</g>
<path d="M436 100a10 10 0 0 0 10 -10v-49a10 10 0 0 1 10 -10"></path>
<path d="M40 31a10 10 0 0 1 10 10v79a10 10 0 0 0 10 10"></path>
<g>
<path d="M60 130h84"></path>
<path d="M352 130h84"></path>
<path d="M144 130h10"></path>
<g>
<path d="M154 130h0"></path>
<path d="M182 130h0"></path>
<rect x="154" y="119" width="28" height="22" rx="10" ry="10"></rect>
<text x="168" y="134">-</text>
</g>
<path d="M182 130h10"></path>
<path d="M192 130h10"></path>
<g>
<path d="M202 130h0"></path>
<path d="M238 130h0"></path>
<rect x="202" y="119" width="36" height="22"></rect>
<text x="220" y="134">d2</text>
</g>
<path d="M238 130h10"></path>
<path d="M248 130h10"></path>
<g>
<path d="M258 130h0"></path>
<path d="M286 130h0"></path>
<rect x="258" y="119" width="28" height="22" rx="10" ry="10"></rect>
<text x="272" y="134">:</text>
</g>
<path d="M286 130h10"></path>
<path d="M296 130h10"></path>
<g>
<path d="M306 130h0"></path>
<path d="M342 130h0"></path>
<rect x="306" y="119" width="36" height="22"></rect>
<text x="324" y="134">d2</text>
</g>
<path d="M342 130h10"></path>
</g>
<path d="M436 130a10 10 0 0 0 10 -10v-79a10 10 0 0 1 10 -10"></path>
<path d="M40 31a10 10 0 0 1 10 10v109a10 10 0 0 0 10 10"></path>
<g>
<path d="M60 160h136"></path>
<path d="M300 160h136"></path>
<path d="M196 160h10"></path>
<g>
<path d="M206 160h0"></path>
<path d="M234 160h0"></path>
<rect x="206" y="149" width="28" height="22" rx="10" ry="10"></rect>
<text x="220" y="164">+</text>
</g>
<path d="M234 160h10"></path>
<path d="M244 160h10"></path>
<g>
<path d="M254 160h0"></path>
<path d="M290 160h0"></path>
<rect x="254" y="149" width="36" height="22"></rect>
<text x="272" y="164">d2</text>
</g>
<path d="M290 160h10"></path>
</g>
<path d="M436 160a10 10 0 0 0 10 -10v-109a10 10 0 0 1 10 -10"></path>
<path d="M40 31a10 10 0 0 1 10 10v139a10 10 0 0 0 10 10"></path>
<g>
<path d="M60 190h136"></path>
<path d="M300 190h136"></path>
<path d="M196 190h10"></path>
<g>
<path d="M206 190h0"></path>
<path d="M234 190h0"></path>
<rect x="206" y="179" width="28" height="22" rx="10" ry="10"></rect>
<text x="220" y="194">-</text>
</g>
<path d="M234 190h10"></path>
<path d="M244 190h10"></path>
<g>
<path d="M254 190h0"></path>
<path d="M290 190h0"></path>
<rect x="254" y="179" width="36" height="22"></rect>
<text x="272" y="194">d2</text>
</g>
<path d="M290 190h10"></path>
</g>
<path d="M436 190a10 10 0 0 0 10 -10v-139a10 10 0 0 1 10 -10"></path>
</g>
<path d="M 456 31 h 20 m -10 -10 v 20 m 10 -20 v 20"></path>
</g>
</svg>
